<svg xmlns="http://www.w3.org/2000/svg" width="267.092" height="145.901" viewBox="0 0 70.668 38.603" xmlns:v="https://vecta.io/nano"><rect width="70.626" height="38.554" rx="4.178" ry="2.158" fill="#eb4b98"/><path d="M6.704 38.442h59.654a7.7 7.7 0 0 0 1.629-.169c.5-.11.95-.266 1.328-.46s.683-.427.894-.686c.105-.13.187-.265.242-.406a1.18 1.18 0 0 0 .085-.436V6.928H10.882c-2.315 0-4.178.962-4.178 2.157z" fill="#fafafa" stroke="#eaeaea" stroke-width=".265"/><g fill="#00f"><circle cx="16.908" cy="32.037" r="3.887" fill-opacity=".533"/><circle cx="47.323" cy="14.075" r="4.113" fill-opacity=".533"/></g><circle cx="24.908" cy="15.32" r="3.887" fill="red" fill-opacity=".533"/><path d="M18.05 38.466l-2.773-14.9 16.767-4.7 3.63-5.855 11 .38 14.953 8.372" fill="none" stroke="#c0f" stroke-width="1.5"/><circle cx="32.153" cy="25.17" r="3.887" fill="red" fill-opacity=".533"/><path d="M56.832 31.76l2.88 3.264 7.007-8.255" fill="none" stroke="#05b200" stroke-width="1.696"/></svg>