<svg xmlns="http://www.w3.org/2000/svg" viewBox="0 0 70.668 38.603" height="145.901" width="267.092" xmlns:v="https://vecta.io/nano"><rect ry="2.158" rx="4.178" height="38.554" width="70.626" fill="#16bac5"/><path d="M6.704 38.47h59.654a7.7 7.7 0 0 0 1.629-.169c.5-.11.95-.266 1.328-.46s.683-.427.894-.686c.105-.13.187-.265.242-.406a1.18 1.18 0 0 0 .085-.436V6.956H10.882c-2.315 0-4.178.962-4.178 2.157z" fill="#fafafa" stroke="#eaeaea" stroke-width=".265"/><g fill="none"><g stroke="#1b1f3b" stroke-width="1.323"><path d="M9.504 29.817v-5.604h10.925v5.434"/><path d="M15.05 29.704V18.6H6.9m2.717 0V7.9h5.038m.057 5.38H9.787m10.755-5.55v5.66h5.094m-5.208 10.813V18.95m5.717.112v10.755h5.32V35.6h5.377m-5.32-22.595V7.798h5.434v5.208H48.4v5.377"/><path d="M42.617 18.496V12.95m.283-5.265h22.075V24.44H59.2v-5.66h-5.094m10.925.112h4.925v-5.15M59.26 7.798v5.15M9.734 38.34v-3.042H19.9m6.284.12v2.962m38.848-8.733h5.547m-38.943-10.98H36.9m-5.094 5.377h10.8v11.434h5.547"/><path d="M37.296 30.043h16.245v5.15H64.58"/></g><path d="M26.87 16.857l2.842-.06-.107 10.277 4.57.397.312 5.568 5.324.632.105 4.708" stroke="#c0f" stroke-width="1.5"/></g></svg>