<svg xmlns="http://www.w3.org/2000/svg" xmlns:xlink="http://www.w3.org/1999/xlink" width="563.4" height="374.85" viewBox="0 0 149.07 99.18" xmlns:v="https://vecta.io/nano"><style><![CDATA[.J{fill:#666}.K{fill:#9eba1d}.L{stroke:#000}.M{stroke-width:.4}.N{stroke-width:.265}.O{clip-path:url(#A)}.P{stroke-width:1.448}.Q{stroke-width:.295}.R{stroke-width:.231}]]></style><defs><clipPath id="A"><rect x="160.09" y="104.04" width="69.933" height="60.989" rx="1.014" ry="0" fill="#4f4f4f"/></clipPath><path id="B" d="M230.04 145.82l-1.494.083-.802 2.473-3.407-.802-.267 1.87-4.544-1.07-1.27 4.677 11.784 3.48z"/><path id="C" d="M217.75 139.45l-4.1 15.796 16.404 3.98v-2.7l-11.784-3.48 1.27-4.677 4.544 1.07.267-1.87 3.407.802.802-2.473 1.494-.083v-3.4z"/><path id="D" d="m161.12 104.03a1.01 1.01 0 0 0-1.014 1.014v58.96a1.01 1.01 0 0 0 1.014 1.014h67.905a1.01 1.01 0 0 0 1.014-1.014v-4.775l-16.404-3.98 4.1-15.796 12.293 2.957v-37.366a1.01 1.01 0 0 0-1.014-1.014z"/><path id="E" d="M164.5 104.03l.03.06 49.146 11.5-3.607 14.536-49.976-11.818v7.43l5.47 1.325-3.566 16.02-1.905-.56v21.472a1.01 1.01 0 0 0 1.014 1.014h67.905a1.01 1.01 0 0 0 1.014-1.014v-4.878l-16.55-3.938 4.268-15.736 12.283 2.866v-7.294l-11.9-2.758 3.414-14.633 8.496 1.92V110.5c-.053.023-.282.15-.282.15l-27.9-6.367-.322-.252zm8.13 24.896l36.145 8.434-3.816 15.802-35.924-8.548z"/><path id="F" d="M160.1 142.53l1.905.56 3.566-16.02-5.47-1.325zm61.43-24.9l-3.414 14.633 11.9 2.758v-3.378l-1.185-.335.236-1.7-6.048-1.418 1.18-4.725 5.815 1.397v-5.313z"/><path id="G" d="M161.1 104.03a1.01 1.01 0 0 0-1.014 1.014v2.76l47.984 12.1-1.345 5.03-46.64-11.76v5.147l49.976 11.818 3.607-14.536-49.146-11.5-.03-.06zm40.43 0l.322.252 27.9 6.367.282-.15v-5.454a1.01 1.01 0 0 0-1.014-1.014z"/><path id="H" d="M160.05 142.6l1.953.488m6.82 1.558l36.204 8.56m8.6 2.036l16.048 3.795M164.53 104.1l49.323 11.634m7.678 1.908l8.305 1.956"/><path id="I" d="m160.26 118.38 49.8 11.76m8.14 1.922 11.776 2.78m-68.126 8.018 3.7-15.785m3.47 17.525 3.596-15.688m37.434 1.438 3.607-14.75m4.443 16.66 3.6-14.57"/><path id="J" d="M230.04 156.53l-11.784-3.48 1.27-4.677 4.544 1.07.267-1.87 3.408.802.802-2.473 1.494-.083m-.01-20.96l-5.815-1.397-1.18 4.725 6.048 1.417-.236 1.7 1.185.335"/><path id="K" d="M161.1 165.02l56.17-.043-57.18-13.6v12.64a1.01 1.01 0 0 0 1.01 1.013z"/><path id="L" d="M174.93 153.14l10.805-5.58-.324 12.128z"/></defs><rect width="148.92" height="99.18" ry="2.493" fill="#fefefe"/><circle cx="19.303" cy="5.472" r="1.988" fill="#28c940"/><circle cx="12.622" cy="5.451" r="1.988" fill="#ffbd2f"/><circle cx="6.054" cy="5.404" r="1.988" fill="#ff6057"/><rect x="63.207" y="18.91" width="22.635" height="3.253" rx="1.427" ry="1.627" fill="#ccc"/><g transform="translate(-120.6 -79.409)" class="O"><use xlink:href="#B" class="J"/><use xlink:href="#C" class="K"/><use xlink:href="#D" class="J"/><path d="m172.63 128.92 36.416 8.613-4.022 15.674-36-8.6z" class="K"/><use fill="#f1c9a9" xlink:href="#E"/><g class="K"><use xlink:href="#F"/></g><path d="m160.1 113.17 46.64 11.76 1.345-5.03-47.984-12.1z" class="J"/><g class="K"><use xlink:href="#G"/></g><path d="m160.17 126 5.557 1.308m6.713 1.583 36.608 8.655m8.287 1.934 12.3 2.87" fill="none" class="L M"/><use xlink:href="#K" fill="#ffba36"/><g fill="none"><g class="L"><path d="m160.1 151.36 57.18 13.6"/><use xlink:href="#H" class="M"/><path d="m201.53 104.03 28.592 6.76"/><path d="m160.1 107.8 47.984 12.1-1.345 5.03-46.64-11.76" class="N"/><use xlink:href="#I" class="M"/></g><g stroke="#c0f"><use xlink:href="#L" stroke-width="1.2"/><g transform="matrix(.82859 0 0 .82859 55.569 93.185)"><circle cx="185.91" cy="22.584" r="4.658" stroke-width="1.3"/><g class="P"><circle cx="185.9" cy="22.463" r="7.423"/><path d="m157.1 65.628 24.53-36.607"/></g></g></g><g class="L"><path d="m204.9 153.38 3.967-15.93m4.693 18 3.985-16.048" class="M"/><use xlink:href="#J" class="N"/></g></g><g class="J L"><path transform="rotate(13.426)" d="m202.64 90.353h9.773v6.452h-9.773z" class="Q"/><path transform="rotate(281.838)" d="m-103.84 221.47h7.655v5.054h-7.655z" class="R"/></g></g><rect x="67.582" y="87.604" width="13.711" height="2.135" rx=".864" ry="1.068" fill="#eaeaea"/><rect width="148.92" height="99.18" ry="2.493" fill="#fefefe"/><circle cx="19.303" cy="5.472" r="1.988" fill="#28c940"/><circle cx="12.622" cy="5.451" r="1.988" fill="#ffbd2f"/><circle cx="6.054" cy="5.404" r="1.988" fill="#ff6057"/><path d="M.007 11.087l149.06.012" fill="none" stroke="#eaeaea" class="N"/><rect x="63.235" y="15.607" width="22.635" height="3.253" rx="1.427" ry="1.627" fill="#ccc"/><g transform="translate(-120.6 -77.292)" class="O"><use xlink:href="#B" class="J"/><use xlink:href="#C" class="K"/><use xlink:href="#D" class="J"/><path d="M172.63 128.92l36.416 8.613-4.022 15.674-36-8.6z" class="K"/><use xlink:href="#E" fill="#f1c9a9"/><g class="K"><use xlink:href="#F"/></g><path d="M160.1 113.17l46.64 11.76 1.345-5.03-47.984-12.1z" class="J"/><g class="K"><use xlink:href="#G"/></g><path d="M160.17 126l5.557 1.308m6.713 1.583l36.608 8.655m8.287 1.934l12.3 2.87" fill="none" class="L M"/><use xlink:href="#K" fill="#ffba36"/><g fill="none"><g class="L"><path d="M160.1 151.36l57.18 13.6"/><use xlink:href="#H" class="M"/><path d="M201.53 104.03l28.592 6.76"/><path d="M160.1 107.8l47.984 12.1-1.345 5.03-46.64-11.76" class="N"/><use xlink:href="#I" class="M"/></g><g stroke="#c0f"><use xlink:href="#L" stroke-width="1.2"/><g transform="matrix(.82859 0 0 .82859 55.569 93.185)"><circle cx="185.91" cy="22.584" r="4.658" stroke-width="1.3"/><g class="P"><circle cx="185.9" cy="22.463" r="7.423"/><path d="M157.1 65.628l24.53-36.607"/></g></g></g><g class="L"><path d="M204.9 153.38l3.967-15.93m4.693 18l3.985-16.048" class="M"/><use xlink:href="#J" class="N"/></g></g><g class="J L"><path transform="rotate(13.426)" d="M202.64 90.353h9.773v6.452h-9.773z" class="Q"/><path transform="rotate(281.838)" d="M-103.84 221.47h7.655v5.054h-7.655z" class="R"/></g></g><rect x="67.636" y="20.697" width="13.711" height="2.135" rx=".864" ry="1.068" fill="#eaeaea"/></svg>