<svg xmlns="http://www.w3.org/2000/svg" viewBox="0 0 70.655 38.702" height="146.275" width="267.043" xmlns:v="https://vecta.io/nano"><rect ry="2.158" rx="4.178" height="38.554" width="70.626" fill="#454ade"/><path d="M6.7 38.5h59.654a7.7 7.7 0 0 0 1.629-.169c.5-.11.95-.266 1.328-.46s.683-.427.894-.686c.105-.13.187-.265.242-.406a1.18 1.18 0 0 0 .085-.436V6.987H10.868c-2.315 0-4.178.962-4.178 2.157z" fill="#fafafa" stroke="#eaeaea" stroke-width=".265"/><path d="M19.846 38.53l-4.81-20.446 11.9-4.7 9.42 16.71 13.693 2.825V18.35" fill="none" stroke="#c0f" stroke-width="1.5"/><path d="M47.375 16.48l13.253 5.208-3.414 2.546 4.456 4.745-1.968 1.968-4.572-4.572-2.546 3.704z" fill="#fafbff" stroke="#000"/><g fill="#c0f"><circle r="1.447" cy="18.186" cx="15.159"/><circle r="1.447" cy="13.527" cx="26.777"/><circle r="1.447" cy="29.978" cx="36.613"/><circle r="1.447" cy="32.898" cx="49.981"/></g></svg>